<svg height="71" viewBox="0 0 265 71" width="265" xmlns="http://www.w3.org/2000/svg"><g fill="none" fill-rule="evenodd"><path d="m233.480791 36.7110423c.448704-1.1115929.923299-2.2361236 1.423796-3.3736165.586259-1.3324078 1.163627-2.5848523 1.732121-3.7573712.213186-.6395557.453015-1.2080412.719497-1.7054734.266482-.4974323.541842-1.0481526.826089-1.6521775.071061-.0710617.319774-.1421224.746144-.2131841.426371-.0710618.950443-.1332399 1.572234-.1865362.62179-.0532963 1.287984-.0710615 1.998601-.053296.710618.0177654 1.385694.0799435 2.02525.1865361s1.199159.2575966 1.678826.4530164c.479666.1954198.790557.4530148.93268.7727927-.284247.5329631-.728376 1.3323958-1.332401 2.398322-.604025 1.0659263-1.225806 2.2384275-1.865361 3.517539-.639556 1.2791115-1.234689 2.6026167-1.785418 3.9705554-.550728 1.3679387-.897149 2.6026181-1.039273 3.7040752-.248716 1.5633585-.275364 2.6470339-.079944 3.2510588.19542.6040248.524076.8705024.985977.7994407.461901-.0710618 1.012622-.4263652 1.652177-1.065921.639556-.6395557 1.279102-1.4212232 1.918658-2.345026 1.172519-2.3805686 2.149603-4.3613851 2.931283-5.942509.781679-1.581124 1.456755-2.9223944 2.025249-4.0238515s1.039271-2.0163634 1.412345-2.7447463c.373075-.728383.755026-1.4301072 1.145865-2.1051938.532964-.1776544 1.181392-.3197758 1.945306-.4263684s1.536699-.1332404 2.318378-.0799441 1.518934.1776525 2.211786.3730724c.692852.1954198 1.199159.5063103 1.518937.9326808l-1.225809 2.8246904c-.497432 1.1725188-1.03927 2.4516111-1.625529 3.8373153-.58626 1.3857041-1.190275 2.7891526-1.812066 4.2103876-.62179 1.4212349-1.216923 2.8158009-1.785417 4.1837395-.568494 1.3679387-1.083684 2.6203833-1.545586 3.7573712.355309-.284247.719495-.6395504 1.092569-1.0659209.373075-.4263705.808321-1.0126211 1.305754-1.7587695.497432-.7461483 1.119213-1.7054676 1.865361-2.8779864.746148-1.1725189 1.669937-2.6647933 2.771394-4.4768679.568494-.9593336 1.181393-1.527819 1.838714-1.7054734s1.225807-.1332415 1.705474.1332401c.479666.2664816.808322.6750805.985976 1.225809.177655.5507286.071064 1.0925663-.319776 1.6255294-.781679 1.421235-1.669938 2.9579223-2.664802 4.610108-.994865 1.6521856-2.069658 3.2066381-3.224411 4.663404-1.154753 1.4567658-2.362785 2.718093-3.624131 3.7840192s-2.531556 1.7232376-3.810667 1.9719537c-.319778 1.3146423-.77279 2.7180908-1.359049 4.2103876-.58626 1.4922967-1.234689 2.9668059-1.945306 4.4235718-.710618 1.4567658-1.447872 2.8602143-2.211786 4.2103876-.763914 1.3501732-1.483403 2.5404397-2.15849 3.570835-.497432.7816793-1.154743 1.3501647-1.971954 1.7054735-.81721.3553087-1.64329.5151953-2.478266.4796644-.834975-.0355309-1.625525-.2575955-2.371674-.6662006-.746148-.408605-1.296868-1.0215034-1.652177-1.8387135-.319778-.9238028-.399721-1.8564743-.239832-2.7980424.159889-.9415682.488544-1.8831223.985977-2.8246905.497432-.9415681 1.11033-1.8831222 1.838713-2.8246904s1.483403-1.8742396 2.265082-2.7980424c.568494-.6750866 1.110332-1.3235153 1.625529-1.9453056.515198-.6217903.994858-1.2524539 1.438994-1.8920096.444136-.6395558.843852-1.3146323 1.199161-2.0252498.355308-.7106175.639551-1.4745198.852736-2.2917299-.604024.568494-1.225805 1.0836839-1.865361 1.5455853s-1.314632.8438525-2.02525 1.145865c-.710617.3020124-1.465637.4885467-2.265082.5596084-.799445.0710618-1.64329-.0177641-2.531562-.2664802-1.883136-.4974322-3.215524-1.4301037-3.997203-2.7980424-.221127-.3869723-.403869-.7974003-.548224-1.2312852-.548141.7529315-1.155952 1.438717-1.82345 2.0573739-.728383.6750866-1.536699 1.2346895-2.424971 1.6788255-.888271.4441359-1.883121.6662005-2.984578.6662005-1.847606-.2487161-3.224406-.9593229-4.130444-2.1318418-.657657-.8510859-1.146827-1.8098028-1.467516-2.8761663-.265367.3303797-.531222.6495491-.797566.9575087-1.136988 1.3146423-2.300606 2.3450222-3.490891 3.0911706-1.190284.7461484-2.407198 1.119217-3.650779 1.119217-.604025 0-1.403457-.2220647-2.398322-.6662006-.994864-.4441359-2.069657-1.021504-3.22441-1.7321215-1.154754-.7106175-2.291725-1.5100502-3.410947-2.398322-1.119223-.8882719-2.087425-1.7765304-2.904635-2.6648023-.39084 1.136988-.692847 2.5049061-.906033 4.1037955-.213185 1.5988894-.071064 3.641884.426369 6.1290452-1.385704-.284247-2.549323-.648433-3.490891-1.0925689s-1.723236-.9060304-2.345026-1.3856972c-.621791-.4796668-1.10145-.9415612-1.438994-1.3856972-.337543-.4441359-.559607-.8083219-.6662-1.0925689-.230357-.6556311-.392226-1.3664882-.485607-2.1325773-.467935.517865-.945618 1.0155395-1.433051 1.4930248-.888272.8172101-2.007477 1.4656388-3.357651 1.9453056-1.350173.4796668-2.806917.7194966-4.370275.7194966-1.065927 0-2.114072-.1510039-3.144467-.4530164-1.030395-.3020124-1.989715-.7283765-2.877986-1.2791051-.888272-.5507285-1.66994-1.2169224-2.345026-1.9986017-.378587-.4383633-.7013-.910245-.968142-1.4156499-.208161.2282658-.418407.4514342-.63074.6695053-1.314642 1.3501732-2.744738 2.4338487-4.290332 3.2510588-1.545593.8172101-3.259932 1.225809-5.143068 1.225809-.852741 0-1.758765-.1154736-2.718098-.3464243-.959334-.2309507-1.865358-.5684889-2.718099-1.0126248-.852741-.444136-1.616643-1.0037388-2.29173-1.6788255-.499962-.4999625-.892738-1.0583818-1.178333-1.6752675-.365744.4602327-.736875.8942973-1.113397 1.3021952-1.279111 1.3857041-2.655912 2.416084-4.130443 3.0911707-1.474531.6750866-3.15334.8527383-5.036476.5329604-.78168-.1421235-1.430108-.3641881-1.945306-.6662006-.515198-.3020124-.932679-.6395506-1.252457-1.0126248s-.559608-.7816731-.719497-1.2258091c-.159889-.4441359-.257597-.8971478-.293128-1.3590491-.071062-.8882719-.008884-1.8564737.186536-2.9046345s.453015-2.1051885.772793-3.1711147c.319778-1.0659263.675081-2.1051888 1.065921-3.1178187.390839-1.0126299.746143-1.9275362 1.065921-2.7447463.284247-.8172102.497429-1.4656389.639552-1.9453057.142124-.4796668.159889-.8083225.053296-.9859769-.106592-.1776543-.364187-.2220673-.772792-.1332401s-1.003739.2931267-1.785418.6129046c-.888272.3908396-1.687704.9948554-2.398322 1.8120655-.710617.8172101-1.332398 1.7854119-1.865362 2.9046345-.532963 1.1192225-.985975 2.309489-1.359049 3.570835-.373074 1.2613461-.657317 2.5226732-.852736 3.7840193-.19542 1.261346-.310894 2.4693777-.346425 3.6241311s0 2.1407204.106592 2.9579305c-1.456766-.4263705-2.655915-.7816739-3.597483-1.0659209s-1.70547-.5773723-2.29173-.8793848c-.586259-.3020124-1.012623-.630668-1.279105-.9859768-.266481-.3553087-.470781-.8172032-.612904-1.3856972.063622-.8270916.173525-1.7093587.329709-2.646807-.491171.55661-1.009677 1.1013366-1.555518 1.6341822-1.492297 1.4567658-3.126693 2.7358581-4.903237 3.8373152-1.776543 1.1014572-3.659651 1.9719505-5.64938 2.6115063-1.989729.6395557-3.997194.9593288-6.022454.9593288-2.131852 0-4.281438-.3908338-6.448821-1.172513-2.1673834-.7816793-4.1126696-1.9186502-5.835917-3.4109469-1.7232474-1.4922968-3.1178134-3.3132268-4.1837396-5.4628447s-1.563351-4.6100941-1.4922893-7.3815023c.0710618-1.6699511.4352478-3.4020553 1.092569-5.1963645.6573211-1.7943091 1.5455797-3.5708262 2.6648022-5.3296045 1.1192226-1.7587783 2.4338452-3.4819999 3.9439074-5.1697164 1.5100622-1.6877166 3.1266927-3.2688168 4.8499403-4.7433481 1.723247-1.4745313 3.526412-2.8069191 5.409548-3.9972034 1.883137-1.1902843 3.78401-2.1940165 5.702677-3.01122659 2.096322-.81721012 4.18373-1.36793041 6.262286-1.65217741s3.935016-.17765598 5.569436.31977627c1.634421.49743225 2.949043 1.48339923 3.943908 2.95793053.994864 1.4745313 1.474524 3.5619389 1.438993 6.2622854-.035531 1.7765437-.524073 3.4820001-1.465641 5.1164203-.941568 1.6344203-2.096304 3.0822817-3.464243 4.3436277-1.367939 1.2613461-2.842448 2.2650783-4.423572 3.0112266-1.581124.7461484-3.01122 1.119217-4.290332 1.119217-.568494 0-1.234687-.1776517-1.998601-.5329605-.763914-.3553087-1.536699-.8349683-2.318378-1.4389932 1.812074-1.0659262 3.41094-2.3627837 4.796644-3.8906113s2.398319-3.0023368 3.037874-4.4235718c.817211-2.2029142 1.02151-3.7040712.612905-4.5035159-.408605-.7994446-1.172507-1.1369829-2.29173-1.0126248-1.119223.124358-2.469376.6129002-4.050499 1.4656412-1.581124.852741-3.117812 1.838708-4.610108 2.9579305-1.492297 1.1192226-2.824685 2.2739587-3.997204 3.464243s-1.918656 2.1762513-2.238434 2.9579305c-1.065926 1.3146424-1.945302 2.7447387-2.638154 4.2903317-.6928521 1.5455931-1.1636291 3.0911629-1.4123452 4.636756-.2487161 1.545593-.2664813 3.04675-.0532961 4.5035158.2131853 1.4567659.7106101 2.7536234 1.4922893 3.8906114.781679 1.1369879 1.865355 2.0518942 3.251059 2.7447463s3.108925 1.0748032 5.169716 1.145865c1.527828.0710617 3.197754-.3464198 5.009829-1.2524571 1.812074-.9060373 3.677417-2.0785386 5.596084-3.517539 1.918668-1.4390004 3.837306-3.055631 5.755973-4.8499401.791074-.7398001 1.564022-1.4720457 2.31885-2.1967405.138233-.4286455.280198-.8600289.425897-1.2941505.870506-2.5937539 1.829825-5.1874688 2.877986-7.7812227 1.048161-2.5937538 2.114071-5.0098171 3.197763-7.2482622 1.083691-2.2384451 2.140719-4.2014965 3.171114-5.889213 1.030396-1.6877166 1.93642-2.9046308 2.718099-3.65077914.355309-.31977788 1.030385-.49742959 2.02525-.53296046.994864-.03553087 1.980831.04441239 2.95793.23983221.977099.19541981 1.812062.47966259 2.504914.85273669.692852.3730742.914917.7905557.666201 1.2524571-.355309.6395558-.826086 1.4389884-1.412345 2.3983221-.58626.9593336-1.208041 1.9985961-1.865362 3.1178186-.657321 1.1192226-1.34128 2.2739587-2.051898 3.464243-.710617 1.1902843-1.367929 2.3361378-1.971953 3.4375949-.604025 1.1014571-1.13698 2.1051893-1.598882 3.0112266-.461901.9060373-.781674 1.6432919-.959329 2.2117859 1.812075-1.8476055 3.561944-3.0289894 5.249661-3.544187 1.687716-.5151977 3.082282-.4086067 4.183739.3197762 1.101458.728383 1.803182 2.0430056 2.105194 3.9439074.302013 1.9009018-.008878 4.3080825-.932681 7.2216142-.532963 1.6344202-.906031 2.860217-1.119217 3.6774271-.213185.8172101-.373071 1.4745215-.479664 1.9719537-.142123.7461484-.159889 1.225808-.053296 1.4389932.106593.2131853.302009.2398331.586256.0799441.284247-.1598889.630668-.4530142 1.039273-.8793847s.826087-.9415605 1.252457-1.5455854c.426371-.5329631.852735-1.092566 1.279106-1.6788254.308188-.4237595.602451-.828951.882792-1.2155806.016351-.0479064.032981-.0957292.049888-.1434686.302013-.8527409.648434-1.6699388 1.039273-2.4516181.746149-1.4567658 1.634407-2.8158014 2.664803-4.0771474 1.030395-1.2613461 2.149601-2.3627867 3.35765-3.3043549 1.20805-.9415681 2.451612-1.6877053 3.730724-2.2384339 1.279111-.5507285 2.522673-.8260887 3.730723-.8260887 2.131852 0 3.66854.364186 4.610108 1.0925689.941568.728383 1.421227 1.6610544 1.438993 2.7980424.017765 1.136988-.346421 2.3983152-1.092569 3.7840193s-1.705468 2.7536222-2.877986 4.1037955c-1.172519 1.3501732-2.504907 2.5848526-3.997204 3.7040752-1.492297 1.1192225-2.966806 1.9808333-4.423572 2.5848582.035531.9593336.213183 1.6699404.532961 2.1318418s.737259.7461441 1.252457.8527367 1.101448.0621797 1.758769-.1332401c.657322-.1954198 1.30575-.5063103 1.945306-.9326808.639556-.3553087 1.30575-.9149116 1.998602-1.6788254s1.394576-1.5988769 2.105194-2.5049142c.098406-.125468.196301-.2516171.293685-.3784474.160259-1.543719.559789-3.0519668 1.198604-4.5247888.639556-1.4745313 1.483401-2.8690972 2.531562-4.1837395 1.048161-1.3146424 2.211779-2.4693785 3.490891-3.464243 1.279111-.9948645 2.638147-1.7854146 4.077147-2.371674 1.439001-.5862595 2.869097-.8793848 4.290332-.8793848.639556 0 1.30575.0799433 1.998602.2398322.692852.159889 1.341281.4086013 1.945306.7461447.604024.3375433 1.110332.7639074 1.518937 1.2791051.408605.5151976.648435 1.128096.719496 1.8387135.035531.7106175-.07106 1.4834024-.319776 2.318378s-.559606 1.6432908-.932681 2.4249701c-.373074.7816792-.755025 1.4922861-1.145865 2.1318418-.390839.6395557-.692847 1.1369805-.906032 1.4922893-.319778.3197779-.817203.6484335-1.49229.9859768-.675086.3375433-1.474519.5063125-2.398322.5063125-.568494 0-1.154744-.1154737-1.758769-.3464243-.604025-.2309507-1.110332-.568489-1.518938-1.0126249-.408605-.4441359-.657317-.9859737-.746144-1.6255294s.133237-1.3501626.6662-2.1318418c.604025-.7816793 1.261337-1.2879866 1.971954-1.5189373.710618-.2309507 1.403459-.4352502 2.078546-.6129045 0-.1421235.053295-.3197753.159888-.5329605s.186536-.4441325.239832-.6928486c.053297-.2487161.062179-.4707808.026648-.6662006s-.177652-.3464237-.426368-.4530163h.053296c-.604025-.3197779-1.279101-.2398347-2.02525.2398322-.746148.4796668-1.465638 1.1991562-2.15849 2.1584898s-1.314633 2.087422-1.865361 3.3842989c-.550729 1.2968769-.923797 2.602617-1.119217 3.9172593-.19542 1.3146424-.15989 2.5582044.106592 3.7307232.266481 1.1725189.87938 2.1318381 1.838713 2.8779865h-.053296c.923803.568494 1.687705.8083238 2.29173.7194966s1.332397-.3819525 2.185138-.8793847c.568494-.3553088 1.17251-.8882639 1.812066-1.5988814s1.305749-1.5189328 1.998601-2.4249701c.692853-.9060373 1.394577-1.8920043 2.105194-2.9579305.016559-.0248379.033117-.049695.049676-.0745714.476126-1.8008951 1.08135-3.6591499 1.815686-5.5748094.81721-2.1318525 1.705469-4.2370253 2.664802-6.3155814.959334-2.0785562 1.954183-4.0771379 2.984579-5.9958052 1.030395-1.9186672 2.007479-3.6685365 2.931282-5.2496605.923803-1.5811239 1.749883-2.949042 2.478266-4.1037955.728383-1.1547534 1.287986-1.9808338 1.678826-2.47826609.42637-.35530875.985973-.57737338 1.678825-.66620057s1.403459-.07106202 2.131842.05329605c.728383.12435806 1.403459.35530528 2.02525.69284859.62179.33754332 1.074802.71949452 1.359049 1.14586502-.142124.5329631-.435249 1.305748-.879385 2.3183779-.444136 1.01263-.985973 2.1407183-1.625529 3.3842989-.639556 1.2435807-1.314632 2.5315555-2.02525 3.8639633-.710617 1.3324078-1.376811 2.5848524-1.998602 3.7573713-.62179 1.1725188-1.154745 2.1851336-1.598881 3.0378746-.444136.8527409-.719496 1.4212264-.826089 1.7054734 1.030396-.7816792 2.140719-1.4567557 3.331003-2.0252497s2.442729-.8527368 3.757371-.8527368c1.776544 0 3.224405.4530119 4.343628 1.3590492s1.767651 2.1940122 1.945306 3.8639633c.106592 1.4922968-.186533 2.9401582-.879385 4.3436277-.692852 1.4034696-1.669937 2.6647967-2.931283 3.7840193-1.261346 1.1192225-2.735855 2.0341288-4.423571 2.7447463-1.687717.7106175-3.490882 1.1369816-5.409549 1.2791051l3.197763 1.9986017c.994864.6217903 2.060775.843855 3.197763.6662006 1.279111-.1776544 2.424965-.5773707 3.437594-1.199161 1.01263-.6217903 1.945302-1.3768101 2.798043-2.265082.852741-.8882718 1.643291-1.8742388 2.371674-2.9579305.084531-.1257659.168942-.2516512.253234-.3776559.222773-1.1247291.502551-2.1802345.839335-3.1665311 1.172519-2.9135318 2.30949-5.6760158 3.410947-8.2875351s2.167367-5.0009348 3.197762-7.1683182c1.030396-2.1673833 1.989715-4.0949044 2.877987-5.7826209s1.70547-3.1000476 2.451618-4.2370356c.213185-.2487161.781671-.4530156 1.705473-.6129045.923803-.159889 1.90977-.23983225 2.957931-.23983225s2.016363.07994325 2.904634.23983225c.888272.1598889 1.403462.435249 1.545586.8260887-.106593.4263705-.319775.9948559-.639553 1.7054734s-.710611 1.5278154-1.172513 2.4516181c-.461901.9238028-.977091 1.9275349-1.545585 3.0112266s-1.17251 2.21178-1.812066 3.3842989c-3.126717 5.9691869-5.951379 12.2402923-8.474071 18.8135041-.284247.6395557-.497429 1.34128-.639552 2.1051938-.142124.7639138-.159889 1.3768122-.053296 1.8387135.106592.4619014.355305.6750835.746144.6395526.39084-.0355309.994856-.5329557 1.812066-1.4922893.42637-.5329631.897147-1.1458615 1.412345-1.8387136.515198-.692852 1.00374-1.4034588 1.465641-2.1318418.461902-.7283829.897148-1.4212246 1.305753-2.0785458.162677-.2616974.309866-.50509.441566-.730179zm-73.16402 2.2491163c.497432-.284247 1.065918-.648433 1.705474-1.0925689.639555-.4441359 1.314632-1.021504 2.025249-1.7321215.710618-.6395557 1.296868-1.3679277 1.75877-2.1851378.461901-.8172102.763909-1.5100518.906033-2.0785458.142123-.568494.079945-.9149148-.186537-1.0392729-.266481-.1243581-.755023.1687673-1.465641.8793847-.461901.4619014-.932678 1.0215043-1.412345 1.6788255s-.932679 1.3146325-1.359049 1.9719537c-.426371.6573211-.817204 1.2791021-1.172513 1.8653616-.355309.5862594-.621787 1.0392713-.799441 1.3590491zm45.994487-5.5960847c-.42637.3908396-.888264.8793818-1.385697 1.4656412-.497432.5862594-.994857 1.2258056-1.492289 1.9186577-.497432.692852-.977092 1.421224-1.438993 2.1851378-.461902.7639138-.870501 1.5189336-1.225809 2.265082 1.492296-.2131853 2.744741-.5684887 3.757371-1.065921 1.01263-.4974322 1.829828-1.0748003 2.451618-1.7321214.62179-.6573212 1.057037-1.3323977 1.305753-2.0252498.248716-.692852.355307-1.3235156.319776-1.8920096-.106592-1.136988-.337539-1.7765341-.692848-1.9186576s-.888264.124354-1.598882.7994407z" fill="#45c8f1"/><g transform="translate(0 1)"><path d="m63.9492136 13.3755705c-.1944391-.3990604-.4777477-.7636913-.9002255-.996443-.4650237-.254698-.9731899-.2977852-1.4491483-.2130201l-.0337983-.0181208c-7.1546854 1.2364429-14.3735875 6.6879866-18.7281899 15.0438926-4.6913917 9.0040268-4.7591869 18.8907382-.9376023 25.6564429 7.6771661-.6247651 15.6927121-6.2603355 20.3841038-15.2643624 4.3722968-8.3828859 4.7235994-17.5240268 1.6648605-24.2083892" fill="#828d8c"/><g fill="#121716"><path d="m61.551727 13.0884564c-7.0495134 1.2871812-13.8976291 6.8414094-17.9064955 14.5348993-4.2440624 8.1448993-4.7074956 17.5820134-1.2352256 24.246443 7.3918695-.8591276 14.8246944-6.5724161 19.0669674-14.7171141 4.0567804-7.7782551 4.6862225-16.7389933 1.6433887-23.3891276-.1284332-.2617449-.2976231-.4566442-.5079673-.5722147-.242552-.135302-.556279-.1715436-.8539021-.1153691-.0711751.0106711-.142549.0197315-.2067656.0124832zm-19.6514777 40.6840268c-.3260535 0-.6292434-.1767785-.7914748-.4657047-4.14227-7.3324832-3.7895757-17.5042953.9216973-26.5461745 4.3651395-8.377651 11.6106825-14.1811409 19.3822849-15.5240939.0731632-.0144967.1497062-.0163088.2246587-.0090604.6433591-.0777182 1.2904956.0360402 1.8447864.3392617.5489228.3014094.9803472.7725503 1.2851276 1.4007383 3.2867774 7.1808724 2.6416291 16.7716107-1.6755965 25.0481879-4.7108753 9.0398658-12.8031632 15.0779194-21.1183204 15.7532215-.0250505.001812-.0483116.0036241-.0731632.0036241z"/><path d="m60.6000089 17.2981208c1.9929021 1.0884564 3.7627359 2.4044295 5.2510504 3.8448322-.2101454-2.7942282-.8342195-5.4352349-1.9018457-7.7673825-.1944391-.3990604-.4777477-.7636913-.9002255-.996443-.4650237-.254698-.9731899-.2977852-1.4491483-.2130201l-.0337983-.0181208c-2.4668724.4278523-4.9337448 1.388255-7.2974332 2.76 2.0944956.465906 4.247641 1.2527517 6.3314006 2.3901342"/><path d="m49.4116053 19.3342953c-1.903635 1.8954362-3.7199911 4.0397315-5.3902195 6.4298658 3.5257507-.2456376 7.4204985.6191275 10.949629 2.714698 3.5096469 2.0796644 6.145908 5.0834899 7.6572849 8.3001342 1.2318457-2.6788591 2.1676588-5.3647651 2.8450148-7.9967114-1.8342492-2.41349-4.2050949-4.5561745-7.0622373-6.2528859-2.9090327-1.7293289-5.9711514-2.7692618-8.9994719-3.1951007"/><path d="m40.319089 30.6849664c-1.2048071 2.3609396-2.2191513 4.7222819-3.0442255 7.0616779 3.2849881-.0795302 6.7483116.7777852 9.8587418 2.7038255 3.1442285 1.935302 4.5488428 4.8795302 5.9818873 7.9085235 2.8322908-1.3846309 4.2172225-4.0344967 5.7250208-6.2224832-1.8125787-3.1967114-4.4237894-6.0253692-7.8318428-8.1265772-3.3993056-2.1012081-7.0656172-3.1497987-10.6895816-3.3249665"/></g><path d="m14.4576855 4.82637584c2.9855756 3.02174497 3.7857982 7.11402686 1.7859376 9.13751676-1.9980712 2.02349-6.0389465 1.2148993-9.02273289-1.8086577-2.98378635-3.02174497-3.78420772-7.11402685-1.7861365-9.13751678 1.99827003-2.02348993 6.03894659-1.21308725 9.02293179 1.80865772" fill="#828d8c"/><path d="m12.4790979 6.83194631c1.4990505 1.51268456 1.9765994 3.48926179 1.0729941 4.40275169-.9089733.9187248-2.8573413.4348993-4.35440357-1.0814094-1.49547181-1.51630873-1.97321959-3.48744967-1.06782493-4.40456377.90738279-.91872483 2.8519733-.43308725 4.3492344 1.08322148" fill="#121716"/><path d="m8.35452226 2.82825503c-.65787241 0-1.58652819.1461745-2.27442137.8428188-1.61137982 1.63187919-.79326409 5.21879194 1.78593769 7.83080537 1.63981008 1.6606711 3.67903562 2.6516778 5.45622552 2.6516778.6576736 0 1.5881187-.1461744 2.2762107-.8430201.7449525-.7544295 1.0034095-1.9477852.7272581-3.36120804-.3031899-1.54872483-1.1960593-3.13550336-2.5133946-4.46959732-1.6398101-1.66067114-3.6790356-2.65147651-5.45781604-2.65147651zm4.96774184 13.17362417c-2.2513591 0-4.77350149-1.1931544-6.74672107-3.1932886-3.39194956-3.43510067-4.17626707-8.02369127-1.78593769-10.44442953.89485757-.90624161 2.12650445-1.38442953 3.56491692-1.38442953 2.25116024 0 4.77330264 1.19315437 6.74831154 3.19328859 1.5704244 1.58838927 2.6398398 3.5128188 3.0124155 5.4171141.3992166 2.03798657-.0373769 3.82328857-1.226279 5.02731547-.8948575.9062416-2.1282937 1.3844295-3.5667062 1.3844295z" fill="#121716"/><path d="m41.9002493 4.82637584c-2.9855757 3.02174497-3.7859971 7.11402686-1.7859377 9.13751676 1.9980712 2.02349 6.0389466 1.2148993 9.0227329-1.8086577 2.9837864-3.02174497 3.7840089-7.11402685 1.7859377-9.13751678s-6.0389466-1.21308725-9.0227329 1.80865772" fill="#828d8c"/><path d="m43.8788368 6.83194631c-1.4990504 1.51268456-1.9767982 3.48926179-1.0731929 4.40275169.9089733.9187248 2.8573413.4348993 4.3546024-1.0814094 1.4954718-1.51630873 1.9732196-3.48744967 1.0678249-4.40456377-.9073828-.91872483-2.8519733-.43308725-4.3492344 1.08322148" fill="#121716"/><path d="m42.5455964 5.47973154c-1.3173353 1.33409396-2.2104035 2.92087249-2.5133946 4.46959732-.2763502 1.41342284-.0178932 2.60677854.7272581 3.36120804.688092.6968457 1.6185371.8430201 2.2762107.8430201 1.7771899 0 3.8162166-.9910067 5.4562255-2.6516778 2.579003-2.61201343 3.3973175-6.19892618 1.7859377-7.83080537-.688092-.6966443-1.6167477-.8428188-2.2744213-.8428188-1.7789793 0-3.818006.99080537-5.4578161 2.65147651zm-3.076632 9.13771816c-1.1889021-1.2040269-1.6256944-2.9893289-1.2262789-5.02731547.3725756-1.9042953 1.4419911-3.82872483 3.0122166-5.4171141 1.9750089-2.00013422 4.4971513-3.19328859 6.7485104-3.19328859 1.4384124 0 2.6700593.47818792 3.5647181 1.38442953 2.3905282 2.42073826 1.6060118 7.00932886-1.7859377 10.44442953-1.9732196 2.0001342-4.4951632 3.1932886-6.7465223 3.1932886-1.4384124 0-2.6718486-.4781879-3.5667062-1.3844295z" fill="#121716"/><path d="m48.3312552 12.3412752c-4.7057062-6.57261748-11.9530386-11.36154366-20.1522878-11.36154366-8.1992493 0-15.4467805 4.78892618-20.15248669 11.36154366-5.72521958 7.9928859-9.04221662 19.3238255-5.63615133 28.9089261 2.88418101 8.1195302 9.80883972 14.2894631 17.95102972 16.6397316 2.5454035.7365101 5.1906112 1.102953 7.8376083 1.102953 2.6467982 0 5.2920059-.3664429 7.8374095-1.102953 8.1421899-2.3502685 15.0670474-8.5202014 17.9512284-16.6397316 3.4062641-9.5851006.0890683-20.9160402-5.6363501-28.9089261" fill="#828d8c"/><path d="m50.2758457 15.9785235c-.3260534-1.312349-1.154905-2.5578524-1.9266973-3.6372483-.9839258-1.3755705-2.0853502-2.66456379-3.2778309-3.85590607-4.2547982-2.06859061-9.1173679-2.06496645-12.8248338.46751678-1.9322641 1.32140939-3.2867775 3.16630869-4.0675163 5.26912749-.7807389-2.1028188-2.1354511-3.9477181-4.0675164-5.26912749-3.7076646-2.53248323-8.5702344-2.53610739-12.8248338-.46751678-1.1924807 1.19134228-2.29410385 2.48033557-3.27783085 3.85590607-.7719911 1.0793959-1.60084273 2.3248993-1.92689614 3.6372483-.34056677 1.3665101-.83064095 3.2005369-.76642433 4.5831544.1051721 2.2491946 1.47936795 3.9064429 3.29393471 5.0959731.44375075.292349 5.19061131 3.9712752 4.74845101 4.2330201.3351988-.1987248.7576766-.4405369 1.2280683-.6914094v.4206041c1.7219199-1.0163759 4.2243798-2.2618792 5.8999762-2.0669799l.021273.0036242c.0483116.0054362.0874778.0271812.1338012.0362416.4616439.1226174.8662285.3501342 1.1763769.7328859.7165222.8826845.7807389 1.9024832.5312285 2.8934899.1852937-.1371141.3511038-.3104698.5312285-.4566443-.0196825.682349-.1729674 1.2004027-.1729674 1.2004027l-.3119377.4439597c1.8376291.3521477 3.7681039.5452349 5.7661751.5452349h.0107359.0178932c2.0050296 0 3.9355044-.1930872 5.7733323-.5452349l-.3119377-.4439597s-.1532848-.5180537-.1729673-1.2004027c.1799258.1461745.3457359.3195302.5312285.4566443-.2495104-.9910067-.1854926-2.0108054.5312284-2.8934899.3099496-.3827517.714733-.6102685 1.1763769-.7328859.0463234-.0090604.0856884-.0308054.1338012-.0362416l.021273-.0036242c1.6753976-.1948993 4.1780564 1.050604 5.8999762 2.0669799v-.4206041c.4703917.2508725.8928695.4926846 1.2280683.6914094-.4421603-.2617449 4.3045015-3.9406711 4.7482522-4.2330201 1.8145668-1.1895302 3.1889614-2.8467785 3.2941335-5.0959731.0642167-1.3826175-.4260563-3.2166443-.7666231-4.5831544" fill="#ededea"/><path d="m28.1789674 36.719396c-6.9105431 0-12.5093175 6.982349-12.5093175 15.5963758 0 1.7202685.231816 3.3684564.6435578 4.9153691.7556884.2291276 1.5044184.4763759 2.2797893.658792 3.1138101.7365101 6.349095 1.102953 9.5859704 1.102953 3.2368753 0 6.4721602-.3664429 9.5861691-1.102953.7751721-.1824161 1.5239021-.4296644 2.2795905-.658792.4117418-1.5469127.6435579-3.1951006.6435579-4.9153691 0-8.6140268-5.5987745-15.5963758-12.5093175-15.5963758" fill="#ededea"/><path d="m29.5905401 22.5833557c-.3081603.1012752-.6308339.1518121-.9535075.178792.0250505-.0559732.0711751-.0992618.0711751-.1624833v-1.2527516c.0572582-.0451007.1196855-.0757047.1693887-.1371141l.9696113-1.1877182c.3833116-.4693288.2033858-.8538926-.3992166-.8538926h-2.5380475c-.6026024 0-.7825282.3845638-.3994154.8538926l.9696113 1.1877182c.0856884.10651.1890712.1804026.2942433.2381879v1.1516778c0 .0632215.0445341.1065101.0677952.1624833-.3228724-.0289933-.6435578-.0795303-.9501276-.178792-.3958368-.1280537-1.2139525-.608255-1.3262819.1373154v.1353021c0 1.492953 1.1908903 2.7024161 2.6720475 2.7060402h.0069585c1.4813561-.0036241 2.6718486-1.2130872 2.6718486-2.7060402 0-.0451007 0-.0902014 0-.1353021-.1121305-.7455704-.9302462-.2653691-1.326083-.1373154" fill="#121716"/><path d="m28.1789674 1.90389262c-7.3419674 0-14.4183205 4.00208053-19.41270331 10.98060398-6.28845697 8.7783222-8.45412759 19.7895302-5.51666468 28.0534229 2.69848961 7.5996644 9.34361719 13.755302 17.34146879 16.0640939 4.8981573 1.4150336 10.2794303 1.4150336 15.174009 0 7.9996409-2.3087919 14.6445697-8.4644295 17.3430593-16.0640939 2.9376617-8.2638927.7719911-19.2751007-5.5146766-28.0534229-4.9963709-6.97852345-12.0725252-10.98060398-19.4144925-10.98060398zm0 58.01315438c-2.7557478 0-5.4774986-.3825504-8.0889081-1.1389933-8.6821661-2.5055034-15.61954891-8.940604-18.55880114-17.2153691-3.80548071-10.708188.47953709-22.3963088 5.7574273-29.7648323 5.34190804-7.46255029 12.95664684-11.74228183 20.89028194-11.74228183 7.933635 0 15.5483738 4.27973154 20.8920712 11.74228183 5.2761009 7.3685235 9.5611187 19.0566443 5.755638 29.7648323-2.9392523 8.2747651-9.8766351 14.7098657-18.5605905 17.2153691-2.6096202.7564429-5.3315698 1.1389933-8.0871187 1.1389933z" fill="#121716"/><path d="m20.8459466 11.8789933c-.770003-.420604-1.6290742-.6336242-2.5543502-.6336242-2.5809911 0-5.1512463 2.1952349-6.4115222 3.6716779-2.11914838 2.4821476-4.07984275 7.4750335-.026641 9.1880537 1.4652523.6193288 3.0800119.8069798 4.6558042.8357718 2.0123857.0396644 4.1637418-.007047 5.7520593-1.4440269 1.611181-1.4585235 1.8714273-3.841208 1.7217211-5.91-.1942404-2.6861073-1.3083887-4.7150335-3.1370712-5.7078523" fill="#121716"/><path d="m20.9421721 16.1933557c-.0286291-.3537584-.4117418-.7437584-.6364006-.945906-.5008101-.442349-1.1407893-.6877853-1.8056202-.6877853-.2101454 0-.4258575.0233557-.6451483.0704698-.8483353.1804027-1.5614778.6984564-1.9553264 1.4222819-.1497063.2744295-.4045846.8214765-.3387775 1.1337584.05527.2599329.297822.4385235.545543.4836242.3296321.0614094.4580653-.0956376.6149288-.3662417.0302196-.0525503.0622285-.1067114.0980149-.1642953.4775489-.7491946 1.1515252-1.1607382 1.898267-1.1607382.4188991 0 .6737775.1226174 1.0535104.3773154.2495104.1679195.5222819.5053692.8608605.3247651.2441425-.1316778.3244629-.3032214.3101484-.4872483" fill="#fffffe"/><path d="m35.5119881 11.8789933c.770003-.420604 1.6290742-.6336242 2.5541514-.6336242 2.5811899 0 5.1512463 2.1952349 6.4115222 3.6716779 2.1193472 2.4821476 4.0800416 7.4750335.0268398 9.1880537-1.4652522.6193288-3.0802107.8069798-4.6558042.8357718-2.0123857.0396644-4.1637418-.007047-5.7520593-1.4440269-1.6113798-1.4585235-1.8716261-3.841208-1.7219199-5.91.1944392-2.6861073 1.3083887-4.7150335 3.13727-5.7078523" fill="#121716"/><path d="m35.4155638 16.1933557c.0286291-.3537584.4119407-.7437584.6364006-.945906.5010089-.442349 1.1407893-.6877853 1.8056202-.6877853.2103442 0 .4260563.0233557.6453472.0704698.8483353.1804027 1.5614777.6984564 1.9553264 1.4222819.1497062.2744295.4045845.8214765.3387774 1.1337584-.0554688.2599329-.2976231.4385235-.5457418.4836242-.3296321.0614094-.4578665-.0956376-.61473-.3662417-.0304184-.0525503-.0624273-.1067114-.0980148-.1642953-.4777478-.7491946-1.1513264-1.1607382-1.8982671-1.1607382-.4190979 0-.6737774.1226174-1.0535104.3773154-.2495104.1679195-.5222819.5053692-.8608605.3247651-.2443413-.1316778-.3244629-.3032214-.3103472-.4872483" fill="#fffffe"/><path d="m10.0657062 33.0225503c-.24235308 0-.48490501-.0974496-.66483083-.2905369-.34593472-.3718792-.32804154-.9567785.03916617-1.3071141.2085549-.1985235 2.08018106-1.9638926 3.40805346-2.6120134.450908-.218255.9982403-.0287919 1.2173323.4314765.2192908.4584564.0286291 1.0109396-.4260564 1.2328188-.9089733.4441611-2.436454 1.807047-2.948 2.2944967-.176546.1679194-.4012047.2508724-.6256647.2508724" fill="#121716"/><path d="m20.9690119 27.1558389c-2.5187626-1.5342282-6.4419407.6028188-7.8000327 1.4422148-1.1195163-.555906-2.1068219-1.3683222-3.0106261-2.2292618-1.08909791-1.0361073-1.77361126-1.6878523-2.50067061-3.0489261-.17117804-.2526846-.4385816-.4403356-.76483383-.4403356-1.06762611 0-1.04973293 1.1444295-.62566468 1.8195302 1.30838872 2.0794631 2.80207121 3.4262416 4.82161422 4.8016107.5686054.3863759 1.1692196.7437584 1.8091988 1.0000672.2779407.1119463.6006143.0831543.851914-.0865772 1.112359-.7491947 4.6398991-2.6661745 6.2814985-1.6733557.7984332.4854362 1.2244896 1.1534899 1.2654451 1.9856376.0731632 1.5-1.1139496 3.3231543-3.1762374 4.8791275-2.1175579 1.597651-5.8554421 2.0470469-9.08694954 1.0957047-2.30126113-.6769128-5.36516914-2.3412081-6.89821662-6.4153692-.1781365-.4802013-.7111543-.7183892-1.17637686-.5343624-.47237982.1806041-.70757566.7149665-.52764985 1.1915436 1.40461425 3.7348994 4.27805935 6.4099329 8.09248665 7.5328188 1.30818991.3861745 2.67542732.5738255 4.01224632.5738255 2.5452047 0 4.9782789-.6803355 6.6751483-1.9602684 2.5899377-1.9550336 4.0142345-4.3069128 3.907273-6.4550336-.0713739-1.4442282-.8342195-2.678859-2.1495667-3.4785906" fill="#121716"/><path d="m46.2922285 33.0225503c.2423531 0 .484905-.0974496.6648308-.2905369.345736-.3718792.3278428-.9567785-.0391661-1.3071141-.2085549-.1985235-2.080181-1.9638926-3.4080534-2.6120134-.450908-.218255-.9980416-.0287919-1.2175312.4314765-.219092.4584564-.0284303 1.0109396.4260564 1.2328188.9091721.4441611 2.4366528 1.807047 2.9481988 2.2944967.1763472.1679194.4010059.2508724.6256647.2508724" fill="#121716"/><path d="m35.3889228 27.1558389c2.5185638-1.5342282 6.4419407.6028188 7.8000327 1.4422148 1.1195163-.555906 2.1070208-1.3683222 3.0104273-2.2292618 1.0892967-1.0361073 1.7736113-1.6878523 2.5010682-3.0489261.1709793-.2526846.4383828-.4403356.7644362-.4403356 1.0676262 0 1.0501306 1.1444295.6258635 1.8195302-1.3083887 2.0794631-2.8020712 3.4262416-4.8216142 4.8016107-.5688042.3863759-1.1692196.7437584-1.8091988 1.0000672-.2781395.1119463-.6006143.0831543-.8521128-.0865772-1.1121602-.7491947-4.6397003-2.6661745-6.2812997-1.6733557-.7984332.4854362-1.2244896 1.1534899-1.2656439 1.9856376-.0729644 1.5 1.1141484 3.3231543 3.1764362 4.8791275 2.1175579 1.597651 5.8554421 2.0470469 9.0869496 1.0957047 2.3012611-.6769128 5.3651691-2.3412081 6.8980178-6.4153692.1781365-.4802013.7111543-.7183892 1.1765756-.5343624.472181.1806041.7075757.7149665.5274511 1.1915436-1.4044155 3.7348994-4.2776617 6.4099329-8.0922879 7.5328188-1.3083887.3861745-2.6754273.5738255-4.0122463.5738255-2.5454035 0-4.9784777-.6803355-6.6753471-1.9602684-2.5899377-1.9550336-4.0140356-4.3069128-3.9070742-6.4550336.0711751-1.4442282.8340208-2.678859 2.1495667-3.4785906" fill="#121716"/><path d="m14.509178 45.9797315c2.9911425 3.0289933 3.654184 7.274698 1.4759882 9.478792-2.1781959 2.205906-6.37056679 1.5396644-9.36151041-1.4911409-2.99094362-3.0326175-3.65398517-7.274698-1.47221069-9.4806041 2.17461721-2.2075168 6.3669881-1.5378523 9.3577329 1.492953" fill="#828d8c"/><path d="m13.5021899 49.4925503c1.6433887 1.6679195 1.9143709 4.0975168.6008131 5.4295974-1.315546 1.3324832-3.7184006 1.0616778-5.36357867-.6062417-1.64696736-1.6697315-1.91775074-4.1013422-.60240356-5.4336241 1.31534718-1.3320806 3.71820183-1.0578524 5.36516913.6102684" fill="#ededea"/><path d="m8.50243917 44.1094631c-1.1069911 0-2.04101484.3557718-2.7058457 1.0308725-.84296736.8520805-1.17995549 2.1426845-.94635015 3.6336241.24772107 1.597651 1.10679229 3.2095973 2.41875965 4.5400671 2.51677448 2.5524162 6.32583383 3.261745 8.07101483 1.4909396.841178-.8520805 1.1763769-2.1408724.9445608-3.6320134-.2495104-1.5992617-1.1085816-3.211208-2.4205489-4.5396644-1.5596885-1.5795302-3.5631276-2.5238255-5.36159053-2.5238255zm4.12815433 13.574698c-2.3064303 0-4.73055789-1.1174497-6.65208608-3.0634228-1.58294956-1.602886-2.62373591-3.5794631-2.93209496-5.5596645-.32625222-2.0903355.19245104-3.9477181 1.45988428-5.227651 1.01235608-1.028859 2.39370919-1.5722819 3.99614243-1.5722819 2.30464093 0 4.73075663 1.1172484 6.65208603 3.0650336 1.5829496 1.6030872 2.6237359 3.5760403 2.932095 5.5580537.3262522 2.0905369-.1906617 3.9477181-1.4563057 5.2278523-1.0159347 1.0286578-2.3990771 1.5720806-3.999721 1.5720806z" fill="#121716"/><path d="m41.8485579 45.9797315c-2.9909437 3.0289933-3.6539852 7.274698-1.4757894 9.478792 2.1781959 2.205906 6.370368 1.5396644 9.3615104-1.4911409 2.9909437-3.0326175 3.6539852-7.274698 1.4722107-9.4806041-2.1746172-2.2075168-6.3669881-1.5378523-9.3579317 1.492953" fill="#828d8c"/><path d="m42.855546 49.4925503c-1.6431899 1.6679195-1.9143709 4.0975168-.6004154 5.4295974 1.3153471 1.3324832 3.7180029 1.0616778 5.363181-.6062417 1.6469673-1.6697315 1.9179495-4.1013422.6024035-5.4336241-1.3153471-1.3320806-3.7182017-1.0578524-5.3651691.6102684" fill="#ededea"/><path d="m42.493905 46.6332886c-1.3119673 1.3284564-2.1710385 2.9404027-2.4207477 4.5396644-.2316172 1.491141.1035816 2.7799329.9447596 3.6320134 1.7449822 1.7708054 5.5540416 1.0614766 8.0710149-1.4909396 1.3117685-1.3304698 2.1710385-2.9424161 2.4187596-4.5400671.2334065-1.4909396-.1033828-2.7815436-.946549-3.6336241-.6648308-.6751007-1.5988546-1.0308725-2.7056469-1.0308725-1.7984629 0-3.801902.9442953-5.3615905 2.5238255zm-2.7664836 9.4787919c-1.2654451-1.2801342-1.7823591-3.1373154-1.4561069-5.2278523.3081603-1.9820134 1.3493443-3.9549665 2.932095-5.5580537 1.9215282-1.9477852 4.3474451-3.0650336 6.652086-3.0650336 1.6022345 0 2.9837864.5434229 3.9961425 1.5722819 1.2674332 1.2799329 1.7861365 3.1373155 1.4598843 5.227651-.3083591 1.9802014-1.3493443 3.9567785-2.932095 5.5596645-1.9215282 1.9459731-4.3458546 3.0634228-6.6520861 3.0634228-1.6006439 0-2.9839851-.5434228-3.9999198-1.5720806z" fill="#121716"/><path d="m33.9059763 2.04463087c.0427448-.13711409.0872789-.27060402.1264451-.41516778-1.8964778-.42040269-3.8518042-.64973155-5.853454-.64973155-2.0018487 0-3.9569763.22932886-5.8536529.64973155.039365.14456376.0838991.27805369.126644.41516778l-.9964511.17697987.1389703.42966443.0445342.33563758c.2906647-.1028859.5990237-.16973154.9288546-.16973154.5292403 0 1.0888991.2204698 1.5256914.51281879 1.6433887 1.1190604 2.8466053 2.62812081 3.6593531 4.33771812.0908575.13167785.2228694.23637584.4099525.23637584.2067656 0 .3546825-.12261745.4439496-.27422819h.0141157c.8147359-1.69328859 2.0107952-3.18785235 3.6434481-4.29986577.4365934-.29234899.9962522-.51281879 1.5256913-.51281879.3298309 0 .6379911.06684564.9286558.16973154l.0445342-.33563758.1389703-.42966443z" fill="#121716"/></g></g></svg>