<svg xmlns="http://www.w3.org/2000/svg" xmlns:xlink="http://www.w3.org/1999/xlink" width="367" height="367" version="1.1" viewBox="0 0 367 367" style="background:#fff"><title>brand</title><desc>Created with Sketch.</desc><g id="brand" fill="none" fill-rule="evenodd" stroke="none" stroke-width="1" transform="translate(-319.000000, -917.000000)"><g id="Fat-Raccoon_Final" transform="translate(368.000000, 972.000000)"><path id="Fill-4" fill="#828D8C" d="M274.383924,57.4182229 C273.548376,55.6999794 272.330937,54.12998 270.515457,53.1278158 C268.517148,52.0311569 266.333446,51.8456351 264.288148,52.2106102 L264.14291,52.132587 C233.397655,57.4563675 202.376448,80.9292028 183.663765,116.907417 C163.503825,155.67626 163.212494,198.245699 179.634682,227.376947 C212.625151,224.686882 247.069712,200.421678 267.229652,161.652835 C286.018372,125.558452 287.527996,86.1992341 274.383924,57.4182229"/><path id="Fill-5" fill="#121716" d="M264.216024,56.1192296 C233.885908,61.6388874 204.422294,85.4563875 187.174382,118.447415 C168.914554,153.374166 166.92066,193.842158 181.859897,222.420396 C213.66298,218.736307 245.642271,194.236728 263.894401,159.310841 C281.34846,125.956326 284.056597,87.5311157 270.964984,59.0141792 C270.412408,57.8917711 269.684478,57.0560087 268.779484,56.5604224 C267.735919,55.9802237 266.386127,55.8248134 265.105621,56.0656994 C264.799395,56.1114591 264.492313,56.1503117 264.216024,56.1192296 Z M179.666699,230.579439 C178.263873,230.579439 176.959417,229.821382 176.261425,228.582416 C158.439553,197.139448 159.956999,153.520942 180.226974,114.747786 C199.007729,78.8229555 230.181251,53.9365776 263.618113,48.1777606 C263.932893,48.1155964 264.262215,48.1078259 264.584694,48.138908 C267.352708,47.8056391 270.136975,48.2934549 272.521778,49.5937216 C274.883487,50.8862177 276.739664,52.9065523 278.050964,55.6003317 C292.192131,86.3931666 289.416418,127.519927 270.841809,163.011334 C250.573545,201.775857 215.756954,227.668085 179.981479,230.563898 C179.873701,230.571669 179.773622,230.579439 179.666699,230.579439 Z"/><path id="Fill-6" fill="#121716" d="M260.531658,74.0827893 C269.060001,78.7220567 276.633754,84.3310563 283.002786,90.470405 C282.103498,78.5607208 279.432861,67.3041039 274.864106,57.36392 C274.032031,55.6630269 272.819652,54.1088809 271.011718,53.1168363 C269.021715,52.0312512 266.84709,51.8476028 264.810293,52.2088924 L264.665658,52.1316571 C254.109027,53.9552685 243.552396,58.0487397 233.437326,63.8954524 C242.400423,65.881258 251.614504,69.2349866 260.531658,74.0827893"/><path id="Fill-7" fill="#121716" d="M212.56868,83.2647975 C204.410325,91.441942 196.626018,100.692695 189.467967,111.004027 C204.578178,109.944317 221.26979,113.675019 236.394487,122.715567 C251.435682,131.687495 262.733833,144.646366 269.211099,158.523364 C274.490386,146.966438 278.500974,135.37911 281.4039,124.024571 C273.542909,113.612479 263.382242,104.368675 251.137466,97.0488537 C238.670306,89.5883169 225.547069,85.1019189 212.56868,83.2647975"/><path id="Fill-8" fill="#121716" d="M172.979184,132.102804 C167.798341,142.262976 163.436516,152.424881 159.888579,162.492341 C174.014498,162.150087 188.907283,165.839496 202.282578,174.128103 C215.80321,182.456568 221.843252,195.12689 228.005548,208.161994 C240.184803,202.203312 246.140208,190.799762 252.623955,181.383884 C244.829608,167.627014 233.601029,155.454043 218.945913,146.411612 C204.328413,137.36918 188.562749,132.856629 172.979184,132.102804"/><path id="Fill-9" fill="#828D8C" d="M61.9298624,20.6159709 C74.7723499,33.6542597 78.2145163,51.3117236 69.6120935,60.0427205 C61.0173676,68.7737174 43.6354964,65.2847937 30.8007057,52.2386861 C17.9659149,39.2003974 14.5228934,21.5429335 23.1176193,12.8119366 C31.7132005,4.08093968 49.0942164,7.57768223 61.9298624,20.6159709"/><path id="Fill-10" fill="#121716" d="M53.3966232,28.9851348 C59.8261401,35.4029754 61.8743761,43.7889652 57.9987588,47.6646131 C54.100118,51.562471 45.7434515,49.509753 39.3224618,43.0765362 C32.9082939,36.6433194 30.8592051,28.2803939 34.7424969,24.3893699 C38.6343159,20.4915119 46.9747807,22.5519181 53.3966232,28.9851348"/><path id="Fill-11" fill="#121716" d="M35.6917907,11.9831734 C32.8587843,11.9831734 28.8596993,12.6142073 25.897414,15.6216141 C18.9583036,22.6664209 22.4813683,38.1510888 33.5882257,49.4271257 C40.6497658,56.5962271 49.4313149,60.8743936 57.0844559,60.8743936 C59.916606,60.8743936 63.9233965,60.2433597 66.8865379,57.2350837 C70.0945387,53.9782187 71.2075361,48.8265136 70.0183412,42.7247808 C68.7127097,36.0389506 64.8677319,29.1888429 59.1948701,23.4295721 C52.13333,16.2604707 43.3517809,11.9831734 35.6917907,11.9831734 Z M57.0844559,68.8535826 C47.3893928,68.8535826 36.528251,63.7027466 28.0309443,55.0681863 C13.4241383,40.2388897 10.0466195,20.4299881 20.3401326,9.97968426 C24.1936719,6.06744793 29.4975324,4.00311526 35.6917907,4.00311526 C45.3859976,4.00311526 56.2471394,9.1539512 64.7521514,17.7885115 C71.5148946,24.6455727 76.1201351,32.9533165 77.7245636,41.174141 C79.4437164,49.9721095 77.5636071,57.6792412 72.4438193,62.8770136 C68.59028,66.7892499 63.2787142,68.8535826 57.0844559,68.8535826 Z"/><path id="Fill-12" fill="#828D8C" d="M180.301759,20.6159709 C167.459223,33.6542597 164.016188,51.3117236 172.619498,60.0427205 C181.214257,68.7737174 198.596194,65.2847937 211.431033,52.2386861 C224.265872,39.2003974 227.708052,21.5429335 219.113293,12.8119366 C210.518535,4.08093968 193.136598,7.57768223 180.301759,20.6159709"/><path id="Fill-13" fill="#121716" d="M188.835046,28.9851348 C182.405676,35.4029754 180.356634,43.7889652 184.232163,47.6646131 C188.130714,51.562471 196.48719,49.509753 202.908886,43.0765362 C209.322907,36.6433194 211.371949,28.2803939 207.488746,24.3893699 C203.597016,20.4915119 195.256742,22.5519181 188.835046,28.9851348"/><path id="Fill-14" fill="#121716" d="M183.036723,23.4295721 C177.363849,29.1888429 173.518008,36.0389506 172.21323,42.7247808 C171.023177,48.8265136 172.136176,53.9782187 175.34504,57.2350837 C178.308187,60.2433597 182.314985,60.8743936 185.147141,60.8743936 C192.800297,60.8743936 201.581007,56.5962271 208.643418,49.4271257 C219.749441,38.1510888 223.273369,22.6664209 216.334244,15.6216141 C213.371097,12.6142073 209.372004,11.9831734 206.539848,11.9831734 C198.878987,11.9831734 190.098277,16.2604707 183.036723,23.4295721 Z M169.787747,62.8770136 C164.667949,57.6792412 162.78698,49.9721095 164.506992,41.174141 C166.111424,32.9533165 170.716674,24.6455727 177.478574,17.7885115 C185.983603,9.1539512 196.844766,4.00311526 206.539848,4.00311526 C212.734119,4.00311526 218.03799,6.06744793 221.890681,9.97968426 C232.18507,20.4299881 228.806689,40.2388897 214.199854,55.0681863 C205.70253,63.7027466 194.842223,68.8535826 185.147141,68.8535826 C178.95287,68.8535826 173.641294,66.7892499 169.787747,62.8770136 Z"/><path id="Fill-15" fill="#828D8C" d="M207.308613,52.7671172 C187.088537,24.5572946 155.947278,4.00311526 120.715701,4.00311526 C85.4841242,4.00311526 54.3420109,24.5572946 34.1219341,52.7671172 C9.52108271,87.0727642 -4.73181186,135.705413 9.90380248,176.844882 C22.2969181,211.694089 52.0516723,238.17558 87.0380691,248.262985 C97.9754827,251.424103 109.341748,252.996885 120.715701,252.996885 C132.0888,252.996885 143.455065,251.424103 154.392478,248.262985 C189.378875,238.17558 219.134484,211.694089 231.527599,176.844882 C246.164068,135.705413 231.910319,87.0727642 207.308613,52.7671172"/><path id="Fill-16" fill="#EDEDEA" d="M216.525919,68.9552905 C215.123977,63.3300737 211.56014,57.9913822 208.241642,53.3646889 C204.011027,47.4684813 199.275201,41.9433758 194.147857,36.8368389 C175.853376,27.9700888 154.945643,27.9856233 139.004544,38.84079 C130.696331,44.504843 124.872291,52.412769 121.515325,61.4262338 C118.158359,52.412769 112.333464,44.504843 104.026106,38.84079 C88.0841517,27.9856233 67.1764184,27.9700888 48.8827929,36.8368389 C43.7554487,41.9433758 39.0187675,47.4684813 34.7890077,53.3646889 C31.469655,57.9913822 27.9058174,63.3300737 26.503876,68.9552905 C25.0395311,74.8126618 22.9323448,82.6739842 23.2084589,88.6003978 C23.6606705,98.241284 29.5693405,105.344868 37.3714863,110.443637 C39.2794944,111.696754 59.6897094,127.466003 57.7885401,128.587939 C59.2298042,127.73613 61.0463442,126.699634 63.0689011,125.624301 L63.0689011,127.427166 C70.4726903,123.070601 81.2325905,117.731909 88.4372015,118.56732 L88.5286697,118.582855 C88.7363963,118.606157 88.9048003,118.699364 89.1039785,118.7382 C91.0889224,119.263784 92.8285265,120.239006 94.1620805,121.879622 C97.2429322,125.663137 97.5190463,130.034374 96.4462191,134.282198 C97.2429322,133.694476 97.9558707,132.951409 98.7303578,132.32485 C98.6457284,135.249652 97.986645,137.470224 97.986645,137.470224 L96.6453974,139.3732 C104.546705,140.882636 112.847224,141.71028 121.438389,141.71028 L121.48455,141.71028 C121.545244,141.71028 121.561486,141.71028 121.561486,141.71028 C130.182571,141.71028 138.48309,140.882636 146.385252,139.3732 L145.044005,137.470224 C145.044005,137.470224 144.384921,135.249652 144.300292,132.32485 C145.073924,132.951409 145.786863,133.694476 146.58443,134.282198 C145.511603,130.034374 145.786863,125.663137 148.868569,121.879622 C150.201268,120.239006 151.941727,119.263784 153.926671,118.7382 C154.125849,118.699364 154.295108,118.606157 154.50198,118.582855 L154.593448,118.56732 C161.797204,117.731909 172.557959,123.070601 179.961749,127.427166 L179.961749,125.624301 C181.984305,126.699634 183.800845,127.73613 185.242109,128.587939 C183.34094,127.466003 203.7503,111.696754 205.658308,110.443637 C213.460454,105.344868 219.369979,98.241284 219.822191,88.6003978 C220.098305,82.6739842 217.990264,74.8126618 216.525919,68.9552905"/><path id="Fill-17" fill="#EDEDEA" d="M120.715877,157.722741 C91.1261605,157.722741 67.1532033,187.840498 67.1532033,224.996355 C67.1532033,232.416584 68.1457984,239.5259 69.9088037,246.198374 C73.1445273,247.186695 76.3504559,248.25318 79.6704564,249.040016 C93.0032377,252.216888 106.856152,253.797508 120.715877,253.797508 C134.575602,253.797508 148.428517,252.216888 161.76215,249.040016 C165.081299,248.25318 168.287228,247.186695 171.522951,246.198374 C173.285957,239.5259 174.278552,232.416584 174.278552,224.996355 C174.278552,187.840498 150.305594,157.722741 120.715877,157.722741"/><path id="Fill-18" fill="#121716" d="M126.961952,97.0039691 C125.626775,97.4351398 124.228715,97.6502965 122.830655,97.7651611 C122.939192,97.52686 123.139038,97.3425624 123.139038,97.0734022 L123.139038,91.7399154 C123.387123,91.547903 123.657604,91.4176089 123.872955,91.1561635 L128.074025,86.0995517 C129.734814,84.1014229 128.955242,82.4641745 126.344325,82.4641745 L115.347634,82.4641745 C112.736716,82.4641745 111.957145,84.1014229 113.617072,86.0995517 L117.818142,91.1561635 C118.189407,91.6096213 118.637338,91.924213 119.093021,92.1702289 L119.093021,97.0734022 C119.093021,97.3425624 119.285975,97.52686 119.38676,97.7651611 C117.987839,97.6417245 116.598393,97.4265678 115.270107,97.0039691 C113.555051,96.4587911 110.01037,94.4143736 109.523677,97.5885783 C109.523677,97.7805906 109.523677,97.972603 109.523677,98.1646154 C109.523677,104.52074 114.683491,109.669929 121.100955,109.685358 L121.131104,109.685358 C127.54943,109.669929 132.707521,104.52074 132.707521,98.1646154 C132.707521,97.972603 132.707521,97.7805906 132.707521,97.5885783 C132.221689,94.4143736 128.677009,96.4587911 126.961952,97.0039691"/><path id="Fill-19" fill="#121716" d="M120.715805,7.93530029 C89.1759852,7.93530029 58.7771983,25.1172136 37.3221952,55.0777264 C10.3080736,92.7652163 1.00472781,140.039033 13.6235595,175.517951 C25.2158033,208.145174 53.7621201,234.572836 88.119505,244.485046 C109.16114,250.560132 132.278156,250.560132 153.304418,244.485046 C187.66949,234.572836 216.214952,208.145174 227.807196,175.517951 C240.426882,140.039033 231.123536,92.7652163 204.117101,55.0777264 C182.653557,25.1172136 152.255625,7.93530029 120.715805,7.93530029 Z M120.715805,257 C108.87759,257 97.1854203,255.357618 85.9672576,252.110022 C48.670176,241.353282 18.8683815,213.725817 6.24186324,178.200221 C-10.1058225,132.227344 8.3018715,82.0473745 30.9747734,50.412496 C53.9226846,18.3739371 86.6342835,0 120.715805,0 C154.797326,0 187.508925,18.3739371 210.464523,50.412496 C233.129738,82.0473745 251.537432,132.227344 235.189746,178.200221 C222.563228,213.725817 192.761434,241.353282 155.456666,252.110022 C144.246189,255.357618 132.553166,257 120.715805,257 Z"/><path id="Fill-20" fill="#121716" d="M89.5032835,50.7767525 C86.1975533,48.9583405 82.5094406,48.0373832 78.5371018,48.0373832 C67.4565468,48.0373832 56.4220825,57.5281184 51.0115419,63.9112755 C41.9137421,74.6424306 33.4962076,96.2283476 50.8971685,103.634307 C57.1877009,106.311873 64.1200894,107.123151 70.8851856,107.247628 C79.5246385,107.419111 88.7607105,107.217162 95.5795792,101.004617 C102.496604,94.6989317 103.613878,84.3977888 102.971168,75.4537087 C102.137267,63.8407674 97.3540727,55.0690405 89.5032835,50.7767525"/><path id="Fill-21" fill="#FFFFFE" d="M90.3301906,69.5676316 C90.2071293,68.0260809 88.5603307,66.3266025 87.5946418,65.4457165 C85.4419248,63.5181202 82.6909933,62.4485981 79.8332379,62.4485981 C78.9299343,62.4485981 78.002702,62.5503738 77.0600871,62.7556799 C73.4135434,63.5418093 70.3481221,65.7992992 68.6551755,68.953468 C68.0116678,70.1493322 66.9160809,72.5331643 67.1989509,73.8939754 C67.4365274,75.0266685 68.4791296,75.8049015 69.5439511,76.0014339 C70.9608645,76.2690337 71.5129309,75.58468 72.1872039,74.4054859 C72.3171019,74.1764906 72.4546912,73.9404763 72.6085178,73.6895466 C74.6612476,70.4248285 77.5583142,68.6314708 80.7681615,68.6314708 C82.5687867,68.6314708 83.6643735,69.1657931 85.2966441,70.2756744 C86.369157,71.0074065 87.5416571,72.4778896 88.9970272,71.6908828 C90.0464661,71.1170786 90.3917212,70.3695537 90.3301906,69.5676316"/><path id="Fill-22" fill="#121716" d="M152.728593,50.7767525 C156.034282,48.9583405 159.722348,48.0373832 163.693783,48.0373832 C174.775052,48.0373832 185.808524,57.5281184 191.218997,63.9112755 C200.317535,74.6424306 208.734964,96.2283476 191.334222,103.634307 C185.043769,106.311873 178.110614,107.123151 171.346457,107.247628 C162.707112,107.419111 153.471157,107.217162 146.652374,101.004617 C139.734582,94.6989317 138.617323,84.3977888 139.260025,75.4537087 C140.094769,63.8407674 144.877049,55.0690405 152.728593,50.7767525"/><path id="Fill-23" fill="#FFFFFE" d="M151.900845,69.5676316 C152.023903,68.0260809 153.671507,66.3266025 154.636312,65.4457165 C156.78982,63.5181202 159.539814,62.4485981 162.397484,62.4485981 C163.301615,62.4485981 164.22882,62.5503738 165.171407,62.7556799 C168.817842,63.5418093 171.883171,65.7992992 173.576067,68.953468 C174.219556,70.1493322 175.31511,72.5331643 175.032248,73.8939754 C174.793824,75.0266685 173.752962,75.8049015 172.686464,76.0014339 C171.269592,76.2690337 170.718397,75.58468 170.044144,74.4054859 C169.913396,74.1764906 169.77581,73.9404763 169.622843,73.6895466 C167.56932,70.4248285 164.674049,68.6314708 161.463443,68.6314708 C159.662017,68.6314708 158.567318,69.1657931 156.935096,70.2756744 C155.862615,71.0074065 154.69015,72.4778896 153.234823,71.6908828 C152.184561,71.1170786 151.840171,70.3695537 151.900845,69.5676316"/><path id="Fill-24" fill="#121716" d="M43.1115595,141.71028 C42.0661207,141.71028 41.0198243,141.292972 40.2436782,140.466116 C38.7514195,138.87362 38.8286053,136.36891 40.4126294,134.868671 C41.3122727,134.018535 49.3859073,126.458707 55.1139511,123.683264 C57.0590333,122.748632 59.4200611,123.559968 60.3651583,125.530972 C61.3111131,127.494217 60.4886556,129.860112 58.5272787,130.810264 C54.6062401,132.712292 48.0171458,138.548569 45.8104896,140.635971 C45.048923,141.355051 44.0798124,141.71028 43.1115595,141.71028"/><path id="Fill-25" fill="#121716" d="M89.8926776,116.897117 C79.0959589,110.288328 62.2791895,119.493798 56.4577051,123.109551 C51.6588794,120.71495 47.426777,117.215414 43.5526051,113.50686 C38.8841683,109.043759 35.9499902,106.236325 32.833438,100.37341 C32.0996804,99.2849546 30.9534505,98.4766355 29.5549648,98.4766355 C24.9785673,98.4766355 25.0552667,103.406341 26.8730424,106.314382 C32.4814729,115.271805 38.8841683,121.073143 47.5409738,126.997636 C49.9783103,128.661975 52.5528535,130.201424 55.2961353,131.30549 C56.4875326,131.787706 57.8706785,131.663683 58.9478789,130.932553 C63.7160249,127.705348 78.8368853,119.447831 85.8736291,123.724464 C89.2961267,125.815512 91.1224246,128.693197 91.2979811,132.277728 C91.6115964,138.739077 86.5230173,146.592434 77.6829855,153.294891 C68.6060377,160.176878 52.5835332,162.11268 38.7316217,158.014711 C28.8672268,155.098865 15.733733,147.929803 9.16229895,130.380086 C8.39871382,128.311588 6.11392395,127.285577 4.11973957,128.078285 C2.09487543,128.856249 1.08670444,131.15805 1.85795951,133.210938 C7.87886234,149.299262 20.1959336,160.822145 36.5465411,165.65905 C42.1541194,167.322522 48.0148057,168.130841 53.745103,168.130841 C64.6551664,168.130841 75.0845803,165.200251 82.35824,159.686856 C93.4600519,151.26542 99.5653241,141.134546 99.1068321,131.881374 C98.8008867,125.660266 95.5309357,120.342013 89.8926776,116.897117"/><path id="Fill-26" fill="#121716" d="M199.120225,141.71028 C200.165678,141.71028 201.21199,141.292972 201.988147,140.466116 C203.479569,138.87362 203.402382,136.36891 201.819193,134.868671 C200.919537,134.018535 192.845788,126.458707 187.117664,123.683264 C185.172554,122.748632 182.81235,123.559968 181.865525,125.530972 C180.920414,127.494217 181.742883,129.860112 183.70343,130.810264 C187.625382,132.712292 194.214569,138.548569 196.421257,140.635971 C197.181976,141.355051 198.151101,141.71028 199.120225,141.71028"/><path id="Fill-27" fill="#121716" d="M152.33857,116.897117 C163.134491,110.288328 179.952197,119.493798 185.773711,123.109551 C190.572561,120.71495 194.805537,117.215414 198.678024,113.50686 C203.347336,109.043759 206.280677,106.236325 209.398949,100.37341 C210.131858,99.2849546 211.278094,98.4766355 212.675735,98.4766355 C217.252155,98.4766355 217.17716,103.406341 215.358523,106.314382 C209.750064,115.271805 203.347336,121.073143 194.690487,126.997636 C192.252286,128.661975 189.678582,130.201424 186.935287,131.30549 C185.743031,131.787706 184.36073,131.663683 183.282672,130.932553 C178.515354,127.705348 163.394418,119.447831 156.357639,123.724464 C152.935124,125.815512 151.108817,128.693197 150.932407,132.277728 C150.619642,138.739077 155.708247,146.592434 164.548323,153.294891 C173.625317,160.176878 189.647902,162.11268 203.499884,158.014711 C213.364328,155.098865 226.497888,147.929803 233.068503,130.380086 C233.832092,128.311588 236.116894,127.285577 238.11194,128.078285 C240.135962,128.856249 241.144991,131.15805 240.37288,133.210938 C234.352799,149.299262 222.036517,160.822145 205.684975,165.65905 C200.076517,167.322522 194.216653,168.130841 188.486327,168.130841 C177.575356,168.130841 167.14589,165.200251 159.872193,159.686856 C148.770325,151.26542 142.665875,141.134546 143.124369,131.881374 C143.429464,125.660266 146.699431,120.342013 152.33857,116.897117"/><path id="Fill-28" fill="#828D8C" d="M62.4993374,197.774833 C75.3455448,210.816984 78.1931421,229.098015 68.8383367,238.588338 C59.4835312,248.086464 41.4783484,245.21778 28.6329949,232.167827 C15.7876414,219.110072 12.9400441,200.844645 22.3102189,191.346519 C31.649655,181.841458 49.6548378,184.72488 62.4993374,197.774833"/><path id="Fill-29" fill="#EDEDEA" d="M57.8000744,212.737482 C64.8577938,219.820183 66.0215576,230.137294 60.3803343,235.793878 C54.7305727,241.452173 44.4112409,240.302217 37.3458371,233.219517 C30.2727488,226.129121 29.1098388,215.80346 34.7587466,210.146021 C40.4076544,204.489436 50.7269862,205.653926 57.8000744,212.737482"/><path id="Fill-30" fill="#121716" d="M36.683895,189.705124 C31.919325,189.705124 27.8992191,191.238005 25.0377389,194.146748 C21.4095462,197.818027 19.9591249,203.378731 20.9645792,209.802602 C22.0307887,216.68625 25.7282935,223.631491 31.3750961,229.363961 C42.207476,240.361316 58.6019436,243.417534 66.1133292,235.787832 C69.7338205,232.116553 71.1765405,226.563656 70.1787875,220.138918 C69.1048767,213.24833 65.4073719,206.303088 59.7605693,200.579294 C53.0475572,193.773721 44.4246097,189.705124 36.683895,189.705124 Z M54.4517704,248.193146 C44.5247273,248.193146 34.0911064,243.378496 25.8207097,234.994065 C19.00758,228.087862 14.5279601,219.57157 13.2007604,211.039663 C11.7965472,202.033231 14.0290836,194.030502 19.4842082,188.515776 C23.8414622,184.082828 29.7869061,181.741433 36.683895,181.741433 C46.6032367,181.741433 57.0454147,186.555216 65.3149557,194.947454 C72.1280854,201.854525 76.6077053,210.355202 77.934905,218.894916 C79.3391183,227.902216 77.1142831,235.904077 71.6668599,241.419671 C67.2942033,245.851752 61.3410579,248.193146 54.4517704,248.193146 Z"/><path id="Fill-31" fill="#828D8C" d="M179.731049,197.774833 C166.885708,210.816984 164.038113,229.098015 173.39291,238.588338 C182.747706,248.086464 200.752019,245.21778 213.598214,232.167827 C226.443555,219.110072 229.29115,200.844645 219.920984,191.346519 C210.581557,181.841458 192.576391,184.72488 179.731049,197.774833"/><path id="Fill-32" fill="#EDEDEA" d="M184.430577,212.737482 C177.373662,219.820183 176.209037,230.137294 181.852007,235.793878 C187.500954,241.452173 197.819505,240.302217 204.884958,233.219517 C211.958096,226.129121 213.121868,215.80346 207.472067,210.146021 C201.823119,204.489436 191.503715,205.653926 184.430577,212.737482"/><path id="Fill-33" fill="#121716" d="M182.470633,200.579294 C176.823831,206.303088 173.126327,213.24833 172.05156,220.138918 C171.054663,226.563656 172.497383,232.116553 176.117874,235.787832 C183.628403,243.417534 200.022869,240.361316 210.856103,229.363961 C216.50205,223.631491 220.20041,216.68625 221.266619,209.802602 C222.271218,203.378731 220.821652,197.818027 217.192604,194.146748 C214.331124,191.238005 210.311019,189.705124 205.547305,189.705124 C197.806591,189.705124 189.183645,193.773721 182.470633,200.579294 Z M170.563488,241.419671 C165.116921,235.904077 162.892086,227.902216 164.296299,218.894916 C165.622643,210.355202 170.103974,201.854525 176.916247,194.947454 C185.186643,186.555216 195.627964,181.741433 205.547305,181.741433 C212.443438,181.741433 218.389737,184.082828 222.74699,188.515776 C228.202114,194.030502 230.434651,202.033231 229.030437,211.039663 C227.703238,219.57157 223.222763,228.087862 216.410489,234.994065 C208.140093,243.378496 197.705618,248.193146 187.779431,248.193146 C180.890145,248.193146 174.936144,245.851752 170.563488,241.419671 Z"/><path id="Fill-34" fill="#121716" d="M145.231275,8.55885157 C145.414248,7.97226499 145.60488,7.4011829 145.772535,6.78272597 C137.654493,4.98420501 129.284544,4.00311526 120.716303,4.00311526 C112.147211,4.00311526 103.778113,4.98420501 95.6592201,6.78272597 C95.8277254,7.4011829 96.0183577,7.97226499 96.2013307,8.55885157 L91.9359331,9.31598755 L92.530808,11.1541311 L92.7214403,12.5900192 C93.9656564,12.149864 95.2856148,11.8638923 96.6974853,11.8638923 C98.9629458,11.8638923 101.358615,12.8070821 103.228343,14.0577777 C110.263015,18.84522 115.413491,25.3011179 118.892531,32.6149309 C119.281455,33.1782607 119.846543,33.6261682 120.647369,33.6261682 C121.532447,33.6261682 122.165619,33.1015996 122.547735,32.4529951 L122.608158,32.4529951 C126.095708,25.2089523 131.215547,18.8150724 138.204263,14.0577777 C140.07314,12.8070821 142.468809,11.8638923 144.735121,11.8638923 C146.146991,11.8638923 147.466098,12.149864 148.710315,12.5900192 L148.900947,11.1541311 L149.495822,9.31598755 L145.231275,8.55885157"/></g></g></svg>